<svg width="32" height="32" viewBox="0 0 32 32" fill="none" xmlns="http://www.w3.org/2000/svg">
<rect width="32" height="32" fill=""/>
<path d="M27.84 4.132C26.8627 3.15467 25.6867 2.66667 24.3107 2.66667H7.66134C6.28534 2.66667 5.10934 3.15467 4.13201 4.132C3.15467 5.10933 2.66667 6.28533 2.66667 7.66133V24.3107C2.66667 25.6867 3.15467 26.8627 4.13201 27.84C5.10934 28.8173 6.28534 29.3053 7.66134 29.3053H11.5467C11.8 29.3053 11.9907 29.296 12.1187 29.2787C12.2676 29.2488 12.402 29.1694 12.5 29.0533C12.6267 28.92 12.6907 28.7267 12.6907 28.4733L12.6813 27.2933C12.676 26.5413 12.6733 25.9467 12.6733 25.5067L12.2733 25.576C12.02 25.6227 11.7 25.6427 11.312 25.6373C10.9076 25.6299 10.5045 25.5893 10.1067 25.516C9.68321 25.4378 9.28457 25.2595 8.94401 24.996C8.58733 24.7262 8.3213 24.3541 8.18134 23.9293L8.00801 23.5293C7.86191 23.2138 7.67837 22.917 7.46134 22.6453C7.21334 22.3213 6.96134 22.1027 6.70667 21.9867L6.58667 21.9C6.503 21.8401 6.42689 21.7702 6.36001 21.692C6.29613 21.6194 6.24354 21.5376 6.20401 21.4493C6.16934 21.368 6.19867 21.3013 6.29067 21.2493C6.38401 21.196 6.55067 21.1707 6.79467 21.1707L7.14134 21.224C7.37201 21.2693 7.65867 21.408 7.99867 21.6387C8.34275 21.8732 8.63018 22.1816 8.84001 22.5413C9.10667 23.0147 9.42667 23.376 9.80267 23.6253C10.1787 23.8733 10.5573 23.9987 10.9387 23.9987C11.32 23.9987 11.6493 23.9693 11.928 23.912C12.1975 23.8563 12.4593 23.7685 12.708 23.6507C12.812 22.8773 13.0947 22.28 13.5573 21.864C12.9578 21.8052 12.3637 21.7009 11.78 21.552C11.2104 21.3955 10.6626 21.1684 10.1493 20.876C9.61233 20.5836 9.13801 20.1886 8.75334 19.7133C8.38401 19.2507 8.08001 18.644 7.84267 17.8933C7.60667 17.1413 7.48801 16.2733 7.48801 15.2907C7.48801 13.892 7.94401 12.7013 8.85734 11.7173C8.43067 10.6667 8.47067 9.48667 8.97867 8.18133C9.31467 8.076 9.81201 8.15467 10.4707 8.41467C11.1293 8.67467 11.612 8.89733 11.9187 9.08133C12.2253 9.268 12.4707 9.424 12.656 9.55067C13.74 9.249 14.8602 9.09737 15.9853 9.1C17.1307 9.1 18.24 9.25067 19.316 9.55067L19.9747 9.13467C20.4813 8.83047 21.0157 8.5751 21.5707 8.372C22.184 8.14 22.6507 8.07733 22.976 8.18133C23.496 9.488 23.5413 10.6667 23.1133 11.7187C24.0267 12.7013 24.484 13.892 24.484 15.292C24.484 16.2747 24.3653 17.1453 24.128 17.9013C23.892 18.6587 23.5853 19.2653 23.2093 19.7227C22.8179 20.1918 22.3416 20.5831 21.8053 20.876C21.2453 21.188 20.7013 21.4133 20.1747 21.552C19.591 21.7014 18.9969 21.8062 18.3973 21.8653C18.9973 22.3853 19.2987 23.2053 19.2987 24.3267V28.4733C19.2987 28.6693 19.3267 28.828 19.3853 28.9493C19.4123 29.0078 19.4508 29.0602 19.4984 29.1035C19.546 29.1468 19.6019 29.1801 19.6627 29.2013C19.7907 29.2467 19.9027 29.276 20.0013 29.2867C20.1 29.3 20.2413 29.304 20.4253 29.304H24.3107C25.6867 29.304 26.8627 28.816 27.84 27.8387C28.816 26.8627 29.3053 25.6853 29.3053 24.3093V7.66133C29.3053 6.28533 28.816 5.10933 27.8387 4.132H27.84Z" fill="#F60A20"/>
</svg>
