<svg width="180" height="45" viewBox="0 0 180 45" fill="none" xmlns="http://www.w3.org/2000/svg">
<rect width="180" height="45" fill="white"/>
<path d="M14.97 29.28H7.11L5.85 33H0.48L8.1 11.94H14.04L21.66 33H16.23L14.97 29.28ZM13.65 25.32L11.04 17.61L8.46 25.32H13.65ZM29.1091 10.8V33H23.9791V10.8H29.1091ZM37.9568 18.63C38.4568 17.85 39.1468 17.22 40.0268 16.74C40.9068 16.26 41.9368 16.02 43.1168 16.02C44.4968 16.02 45.7468 16.37 46.8668 17.07C47.9868 17.77 48.8668 18.77 49.5068 20.07C50.1668 21.37 50.4968 22.88 50.4968 24.6C50.4968 26.32 50.1668 27.84 49.5068 29.16C48.8668 30.46 47.9868 31.47 46.8668 32.19C45.7468 32.89 44.4968 33.24 43.1168 33.24C41.9568 33.24 40.9268 33 40.0268 32.52C39.1468 32.04 38.4568 31.42 37.9568 30.66V40.98H32.8268V16.26H37.9568V18.63ZM45.2768 24.6C45.2768 23.32 44.9168 22.32 44.1968 21.6C43.4968 20.86 42.6268 20.49 41.5868 20.49C40.5668 20.49 39.6968 20.86 38.9768 21.6C38.2768 22.34 37.9268 23.35 37.9268 24.63C37.9268 25.91 38.2768 26.92 38.9768 27.66C39.6968 28.4 40.5668 28.77 41.5868 28.77C42.6068 28.77 43.4768 28.4 44.1968 27.66C44.9168 26.9 45.2768 25.88 45.2768 24.6ZM63.4781 16.08C65.3981 16.08 66.9381 16.72 68.0981 18C69.2581 19.26 69.8381 21 69.8381 23.22V33H64.7381V23.91C64.7381 22.79 64.4481 21.92 63.8681 21.3C63.2881 20.68 62.5081 20.37 61.5281 20.37C60.5481 20.37 59.7681 20.68 59.1881 21.3C58.6081 21.92 58.3181 22.79 58.3181 23.91V33H53.1881V10.8H58.3181V18.51C58.8381 17.77 59.5481 17.18 60.4481 16.74C61.3481 16.3 62.3581 16.08 63.4781 16.08ZM72.383 24.6C72.383 22.88 72.703 21.37 73.343 20.07C74.003 18.77 74.893 17.77 76.013 17.07C77.133 16.37 78.383 16.02 79.763 16.02C80.943 16.02 81.973 16.26 82.853 16.74C83.753 17.22 84.443 17.85 84.923 18.63V16.26H90.053V33H84.923V30.63C84.423 31.41 83.723 32.04 82.823 32.52C81.943 33 80.913 33.24 79.733 33.24C78.373 33.24 77.133 32.89 76.013 32.19C74.893 31.47 74.003 30.46 73.343 29.16C72.703 27.84 72.383 26.32 72.383 24.6ZM84.923 24.63C84.923 23.35 84.563 22.34 83.843 21.6C83.143 20.86 82.283 20.49 81.263 20.49C80.243 20.49 79.373 20.86 78.653 21.6C77.953 22.32 77.603 23.32 77.603 24.6C77.603 25.88 77.953 26.9 78.653 27.66C79.373 28.4 80.243 28.77 81.263 28.77C82.283 28.77 83.143 28.4 83.843 27.66C84.563 26.92 84.923 25.91 84.923 24.63ZM98.8943 18.63C99.3743 17.85 100.064 17.22 100.964 16.74C101.864 16.26 102.894 16.02 104.054 16.02C105.434 16.02 106.684 16.37 107.804 17.07C108.924 17.77 109.804 18.77 110.444 20.07C111.104 21.37 111.434 22.88 111.434 24.6C111.434 26.32 111.104 27.84 110.444 29.16C109.804 30.46 108.924 31.47 107.804 32.19C106.684 32.89 105.434 33.24 104.054 33.24C102.874 33.24 101.844 33.01 100.964 32.55C100.084 32.07 99.3943 31.44 98.8943 30.66V33H93.7643V10.8H98.8943V18.63ZM106.214 24.6C106.214 23.32 105.854 22.32 105.134 21.6C104.434 20.86 103.564 20.49 102.524 20.49C101.504 20.49 100.634 20.86 99.9143 21.6C99.2143 22.34 98.8643 23.35 98.8643 24.63C98.8643 25.91 99.2143 26.92 99.9143 27.66C100.634 28.4 101.504 28.77 102.524 28.77C103.544 28.77 104.414 28.4 105.134 27.66C105.854 26.9 106.214 25.88 106.214 24.6ZM129.906 24.36C129.906 24.84 129.876 25.34 129.816 25.86H118.206C118.286 26.9 118.616 27.7 119.196 28.26C119.796 28.8 120.526 29.07 121.386 29.07C122.666 29.07 123.556 28.53 124.056 27.45H129.516C129.236 28.55 128.726 29.54 127.986 30.42C127.266 31.3 126.356 31.99 125.256 32.49C124.156 32.99 122.926 33.24 121.566 33.24C119.926 33.24 118.466 32.89 117.186 32.19C115.906 31.49 114.906 30.49 114.186 29.19C113.466 27.89 113.106 26.37 113.106 24.63C113.106 22.89 113.456 21.37 114.156 20.07C114.876 18.77 115.876 17.77 117.156 17.07C118.436 16.37 119.906 16.02 121.566 16.02C123.186 16.02 124.626 16.36 125.886 17.04C127.146 17.72 128.126 18.69 128.826 19.95C129.546 21.21 129.906 22.68 129.906 24.36ZM124.656 23.01C124.656 22.13 124.356 21.43 123.756 20.91C123.156 20.39 122.406 20.13 121.506 20.13C120.646 20.13 119.916 20.38 119.316 20.88C118.736 21.38 118.376 22.09 118.236 23.01H124.656ZM141.942 28.65V33H139.332C137.472 33 136.022 32.55 134.982 31.65C133.942 30.73 133.422 29.24 133.422 27.18V20.52H131.382V16.26H133.422V12.18H138.552V16.26H141.912V20.52H138.552V27.24C138.552 27.74 138.672 28.1 138.912 28.32C139.152 28.54 139.552 28.65 140.112 28.65H141.942ZM147.199 33.24C146.299 33.24 145.559 32.98 144.979 32.46C144.419 31.92 144.139 31.26 144.139 30.48C144.139 29.68 144.419 29.01 144.979 28.47C145.559 27.93 146.299 27.66 147.199 27.66C148.079 27.66 148.799 27.93 149.359 28.47C149.939 29.01 150.229 29.68 150.229 30.48C150.229 31.26 149.939 31.92 149.359 32.46C148.799 32.98 148.079 33.24 147.199 33.24ZM155.846 14.52C154.946 14.52 154.206 14.26 153.626 13.74C153.066 13.2 152.786 12.54 152.786 11.76C152.786 10.96 153.066 10.3 153.626 9.78C154.206 9.24 154.946 8.97 155.846 8.97C156.726 8.97 157.446 9.24 158.006 9.78C158.586 10.3 158.876 10.96 158.876 11.76C158.876 12.54 158.586 13.2 158.006 13.74C157.446 14.26 156.726 14.52 155.846 14.52ZM158.396 16.26V33H153.266V16.26H158.396ZM169.734 33.24C168.094 33.24 166.614 32.89 165.294 32.19C163.994 31.49 162.964 30.49 162.204 29.19C161.464 27.89 161.094 26.37 161.094 24.63C161.094 22.91 161.474 21.4 162.234 20.1C162.994 18.78 164.034 17.77 165.354 17.07C166.674 16.37 168.154 16.02 169.794 16.02C171.434 16.02 172.914 16.37 174.234 17.07C175.554 17.77 176.594 18.78 177.354 20.1C178.114 21.4 178.494 22.91 178.494 24.63C178.494 26.35 178.104 27.87 177.324 29.19C176.564 30.49 175.514 31.49 174.174 32.19C172.854 32.89 171.374 33.24 169.734 33.24ZM169.734 28.8C170.714 28.8 171.544 28.44 172.224 27.72C172.924 27 173.274 25.97 173.274 24.63C173.274 23.29 172.934 22.26 172.254 21.54C171.594 20.82 170.774 20.46 169.794 20.46C168.794 20.46 167.964 20.82 167.304 21.54C166.644 22.24 166.314 23.27 166.314 24.63C166.314 25.97 166.634 27 167.274 27.72C167.934 28.44 168.754 28.8 169.734 28.8Z" fill="#F60A20"/>
</svg>
